<mxfile host="app.diagrams.net" agent="Mozilla/5.0 (Windows NT 10.0; Win64; x64) AppleWebKit/537.36 (KHTML, like Gecko) Chrome/133.0.0.0 Safari/537.36 OPR/118.0.0.0" version="27.0.6">
  <diagram name="PÃ¡gina-1" id="hoyFbs2UyPRTNz2ES6rX">
    <mxGraphModel dx="2798" dy="889" grid="1" gridSize="10" guides="1" tooltips="1" connect="1" arrows="1" fold="1" page="1" pageScale="1" pageWidth="1169" pageHeight="827" math="0" shadow="0">
      <root>
        <mxCell id="0" />
        <mxCell id="1" parent="0" />
        <mxCell id="Z_NX9bVRWXaXTG4kUy9q-17" value="" style="group" vertex="1" connectable="0" parent="1">
          <mxGeometry x="40" y="320" width="236.26489795918366" height="166.25" as="geometry" />
        </mxCell>
        <mxCell id="Z_NX9bVRWXaXTG4kUy9q-10" value="&lt;span&gt;Password&lt;/span&gt;" style="ellipse;whiteSpace=wrap;html=1;fontSize=7;" vertex="1" parent="Z_NX9bVRWXaXTG4kUy9q-17">
          <mxGeometry x="111.8773469387755" y="131.25" width="52.50122448979591" height="35" as="geometry" />
        </mxCell>
        <mxCell id="Z_NX9bVRWXaXTG4kUy9q-11" value="" style="endArrow=none;html=1;rounded=0;exitX=0.5;exitY=0;exitDx=0;exitDy=0;entryX=0.673;entryY=1.038;entryDx=0;entryDy=0;entryPerimeter=0;" edge="1" parent="Z_NX9bVRWXaXTG4kUy9q-17" source="Z_NX9bVRWXaXTG4kUy9q-10" target="Z_NX9bVRWXaXTG4kUy9q-1">
          <mxGeometry width="50" height="50" relative="1" as="geometry">
            <mxPoint x="122.5073469387755" y="74.375" as="sourcePoint" />
            <mxPoint x="104.13191836734694" y="36.75" as="targetPoint" />
          </mxGeometry>
        </mxCell>
        <mxCell id="Z_NX9bVRWXaXTG4kUy9q-1" value="Usuari" style="rounded=0;whiteSpace=wrap;html=1;fontSize=19;" vertex="1" parent="Z_NX9bVRWXaXTG4kUy9q-17">
          <mxGeometry x="65.63102040816327" width="63.876489795918374" height="31.937500000000004" as="geometry" />
        </mxCell>
        <mxCell id="Z_NX9bVRWXaXTG4kUy9q-4" value="" style="endArrow=none;html=1;rounded=0;exitX=0.5;exitY=0;exitDx=0;exitDy=0;entryX=0.082;entryY=1.005;entryDx=0;entryDy=0;entryPerimeter=0;" edge="1" parent="Z_NX9bVRWXaXTG4kUy9q-17" source="Z_NX9bVRWXaXTG4kUy9q-5" target="Z_NX9bVRWXaXTG4kUy9q-1">
          <mxGeometry width="50" height="50" relative="1" as="geometry">
            <mxPoint x="183.7587755102041" y="48.125" as="sourcePoint" />
            <mxPoint x="87.5065306122449" y="52.5" as="targetPoint" />
          </mxGeometry>
        </mxCell>
        <mxCell id="Z_NX9bVRWXaXTG4kUy9q-5" value="&lt;u&gt;&lt;font&gt;Id_usuari&lt;/font&gt;&lt;/u&gt;" style="ellipse;whiteSpace=wrap;html=1;fontSize=7;" vertex="1" parent="Z_NX9bVRWXaXTG4kUy9q-17">
          <mxGeometry y="70.005" width="52.50122448979591" height="35" as="geometry" />
        </mxCell>
        <mxCell id="Z_NX9bVRWXaXTG4kUy9q-6" value="&lt;span&gt;Username&lt;/span&gt;" style="ellipse;whiteSpace=wrap;html=1;fontSize=7;" vertex="1" parent="Z_NX9bVRWXaXTG4kUy9q-17">
          <mxGeometry x="30.625714285714285" y="120" width="52.50122448979591" height="35" as="geometry" />
        </mxCell>
        <mxCell id="Z_NX9bVRWXaXTG4kUy9q-7" value="" style="endArrow=none;html=1;rounded=0;exitX=0.5;exitY=0;exitDx=0;exitDy=0;entryX=0.25;entryY=1;entryDx=0;entryDy=0;" edge="1" parent="Z_NX9bVRWXaXTG4kUy9q-17" source="Z_NX9bVRWXaXTG4kUy9q-6" target="Z_NX9bVRWXaXTG4kUy9q-1">
          <mxGeometry width="50" height="50" relative="1" as="geometry">
            <mxPoint x="61.255918367346936" y="70" as="sourcePoint" />
            <mxPoint x="91.88163265306122" y="34.5625" as="targetPoint" />
          </mxGeometry>
        </mxCell>
        <mxCell id="Z_NX9bVRWXaXTG4kUy9q-8" value="&lt;span&gt;Email&lt;/span&gt;" style="ellipse;whiteSpace=wrap;html=1;fontSize=7;" vertex="1" parent="Z_NX9bVRWXaXTG4kUy9q-17">
          <mxGeometry x="71.32142857142857" y="85" width="52.50122448979591" height="35" as="geometry" />
        </mxCell>
        <mxCell id="Z_NX9bVRWXaXTG4kUy9q-9" value="" style="endArrow=none;html=1;rounded=0;exitX=0.5;exitY=0;exitDx=0;exitDy=0;entryX=0.5;entryY=1;entryDx=0;entryDy=0;" edge="1" parent="Z_NX9bVRWXaXTG4kUy9q-17" source="Z_NX9bVRWXaXTG4kUy9q-8" target="Z_NX9bVRWXaXTG4kUy9q-1">
          <mxGeometry width="50" height="50" relative="1" as="geometry">
            <mxPoint x="87.5065306122449" y="118.125" as="sourcePoint" />
            <mxPoint x="96.25673469387755" y="36.3125" as="targetPoint" />
          </mxGeometry>
        </mxCell>
        <mxCell id="Z_NX9bVRWXaXTG4kUy9q-12" value="&lt;span&gt;Data_registre&lt;/span&gt;" style="ellipse;whiteSpace=wrap;html=1;fontSize=7;" vertex="1" parent="Z_NX9bVRWXaXTG4kUy9q-17">
          <mxGeometry x="183.76367346938775" y="85.005" width="52.50122448979591" height="35" as="geometry" />
        </mxCell>
        <mxCell id="Z_NX9bVRWXaXTG4kUy9q-13" value="" style="endArrow=none;html=1;rounded=0;exitX=0.5;exitY=0;exitDx=0;exitDy=0;entryX=0.896;entryY=0.948;entryDx=0;entryDy=0;entryPerimeter=0;" edge="1" parent="Z_NX9bVRWXaXTG4kUy9q-17" source="Z_NX9bVRWXaXTG4kUy9q-12" target="Z_NX9bVRWXaXTG4kUy9q-1">
          <mxGeometry width="50" height="50" relative="1" as="geometry">
            <mxPoint x="166.25836734693874" y="109.375" as="sourcePoint" />
            <mxPoint x="124.69489795918366" y="34.5625" as="targetPoint" />
          </mxGeometry>
        </mxCell>
        <mxCell id="Z_NX9bVRWXaXTG4kUy9q-14" value="&lt;span&gt;Rol&lt;/span&gt;" style="ellipse;whiteSpace=wrap;html=1;fontSize=7;" vertex="1" parent="Z_NX9bVRWXaXTG4kUy9q-17">
          <mxGeometry x="129.5087755102041" y="70" width="52.50122448979591" height="35" as="geometry" />
        </mxCell>
        <mxCell id="Z_NX9bVRWXaXTG4kUy9q-15" value="" style="endArrow=none;html=1;rounded=0;exitX=0;exitY=0;exitDx=0;exitDy=0;entryX=0.75;entryY=1;entryDx=0;entryDy=0;" edge="1" parent="Z_NX9bVRWXaXTG4kUy9q-17" source="Z_NX9bVRWXaXTG4kUy9q-14" target="Z_NX9bVRWXaXTG4kUy9q-1">
          <mxGeometry width="50" height="50" relative="1" as="geometry">
            <mxPoint x="153.1330612244898" y="109.375" as="sourcePoint" />
            <mxPoint x="124.69489795918366" y="34.5625" as="targetPoint" />
          </mxGeometry>
        </mxCell>
        <mxCell id="Z_NX9bVRWXaXTG4kUy9q-34" value="" style="group" vertex="1" connectable="0" parent="1">
          <mxGeometry x="490" y="690" width="236.26489795918366" height="166.25" as="geometry" />
        </mxCell>
        <mxCell id="Z_NX9bVRWXaXTG4kUy9q-37" value="Joc" style="rounded=0;whiteSpace=wrap;html=1;fontSize=19;" vertex="1" parent="Z_NX9bVRWXaXTG4kUy9q-34">
          <mxGeometry x="65.63102040816327" width="63.876489795918374" height="31.937500000000004" as="geometry" />
        </mxCell>
        <mxCell id="Z_NX9bVRWXaXTG4kUy9q-38" value="" style="endArrow=none;html=1;rounded=0;exitX=0.5;exitY=0;exitDx=0;exitDy=0;entryX=0.25;entryY=1;entryDx=0;entryDy=0;" edge="1" parent="Z_NX9bVRWXaXTG4kUy9q-34" source="Z_NX9bVRWXaXTG4kUy9q-39" target="Z_NX9bVRWXaXTG4kUy9q-37">
          <mxGeometry width="50" height="50" relative="1" as="geometry">
            <mxPoint x="183.7587755102041" y="48.125" as="sourcePoint" />
            <mxPoint x="87.5065306122449" y="52.5" as="targetPoint" />
          </mxGeometry>
        </mxCell>
        <mxCell id="Z_NX9bVRWXaXTG4kUy9q-39" value="&lt;u&gt;id_joc&lt;/u&gt;" style="ellipse;whiteSpace=wrap;html=1;fontSize=7;" vertex="1" parent="Z_NX9bVRWXaXTG4kUy9q-34">
          <mxGeometry x="42" y="70.005" width="52.50122448979591" height="35" as="geometry" />
        </mxCell>
        <mxCell id="Z_NX9bVRWXaXTG4kUy9q-40" value="Nom" style="ellipse;whiteSpace=wrap;html=1;fontSize=7;" vertex="1" parent="Z_NX9bVRWXaXTG4kUy9q-34">
          <mxGeometry x="99.99571428571429" y="70.01" width="52.50122448979591" height="35" as="geometry" />
        </mxCell>
        <mxCell id="Z_NX9bVRWXaXTG4kUy9q-41" value="" style="endArrow=none;html=1;rounded=0;exitX=0.5;exitY=0;exitDx=0;exitDy=0;entryX=0.75;entryY=1;entryDx=0;entryDy=0;" edge="1" parent="Z_NX9bVRWXaXTG4kUy9q-34" source="Z_NX9bVRWXaXTG4kUy9q-40" target="Z_NX9bVRWXaXTG4kUy9q-37">
          <mxGeometry width="50" height="50" relative="1" as="geometry">
            <mxPoint x="61.255918367346936" y="70" as="sourcePoint" />
            <mxPoint x="91.88163265306122" y="34.5625" as="targetPoint" />
          </mxGeometry>
        </mxCell>
        <mxCell id="Z_NX9bVRWXaXTG4kUy9q-46" value="" style="group" vertex="1" connectable="0" parent="1">
          <mxGeometry x="90" y="690" width="236.26489795918366" height="166.25" as="geometry" />
        </mxCell>
        <mxCell id="Z_NX9bVRWXaXTG4kUy9q-47" value="EstilJoc" style="rounded=0;whiteSpace=wrap;html=1;fontSize=16;" vertex="1" parent="Z_NX9bVRWXaXTG4kUy9q-46">
          <mxGeometry x="65.63102040816327" width="63.876489795918374" height="31.937500000000004" as="geometry" />
        </mxCell>
        <mxCell id="Z_NX9bVRWXaXTG4kUy9q-48" value="" style="endArrow=none;html=1;rounded=0;exitX=0.5;exitY=0;exitDx=0;exitDy=0;entryX=0.25;entryY=1;entryDx=0;entryDy=0;" edge="1" parent="Z_NX9bVRWXaXTG4kUy9q-46" source="Z_NX9bVRWXaXTG4kUy9q-49" target="Z_NX9bVRWXaXTG4kUy9q-47">
          <mxGeometry width="50" height="50" relative="1" as="geometry">
            <mxPoint x="183.7587755102041" y="48.125" as="sourcePoint" />
            <mxPoint x="87.5065306122449" y="52.5" as="targetPoint" />
          </mxGeometry>
        </mxCell>
        <mxCell id="Z_NX9bVRWXaXTG4kUy9q-49" value="&lt;u&gt;id_estiljoc&lt;/u&gt;" style="ellipse;whiteSpace=wrap;html=1;fontSize=7;" vertex="1" parent="Z_NX9bVRWXaXTG4kUy9q-46">
          <mxGeometry x="42" y="70.005" width="52.50122448979591" height="35" as="geometry" />
        </mxCell>
        <mxCell id="Z_NX9bVRWXaXTG4kUy9q-50" value="Nom" style="ellipse;whiteSpace=wrap;html=1;fontSize=7;" vertex="1" parent="Z_NX9bVRWXaXTG4kUy9q-46">
          <mxGeometry x="99.99571428571429" y="70.01" width="52.50122448979591" height="35" as="geometry" />
        </mxCell>
        <mxCell id="Z_NX9bVRWXaXTG4kUy9q-51" value="" style="endArrow=none;html=1;rounded=0;exitX=0.5;exitY=0;exitDx=0;exitDy=0;entryX=0.75;entryY=1;entryDx=0;entryDy=0;" edge="1" parent="Z_NX9bVRWXaXTG4kUy9q-46" source="Z_NX9bVRWXaXTG4kUy9q-50" target="Z_NX9bVRWXaXTG4kUy9q-47">
          <mxGeometry width="50" height="50" relative="1" as="geometry">
            <mxPoint x="61.255918367346936" y="70" as="sourcePoint" />
            <mxPoint x="91.88163265306122" y="34.5625" as="targetPoint" />
          </mxGeometry>
        </mxCell>
        <mxCell id="Z_NX9bVRWXaXTG4kUy9q-52" value="" style="group" vertex="1" connectable="0" parent="1">
          <mxGeometry x="310" y="670" width="236.26489795918366" height="166.25" as="geometry" />
        </mxCell>
        <mxCell id="Z_NX9bVRWXaXTG4kUy9q-53" value="Experiencia" style="rounded=0;whiteSpace=wrap;html=1;fontSize=11;" vertex="1" parent="Z_NX9bVRWXaXTG4kUy9q-52">
          <mxGeometry x="65.63102040816327" width="63.876489795918374" height="31.937500000000004" as="geometry" />
        </mxCell>
        <mxCell id="Z_NX9bVRWXaXTG4kUy9q-54" value="" style="endArrow=none;html=1;rounded=0;exitX=0.5;exitY=0;exitDx=0;exitDy=0;entryX=0.25;entryY=1;entryDx=0;entryDy=0;" edge="1" parent="Z_NX9bVRWXaXTG4kUy9q-52" source="Z_NX9bVRWXaXTG4kUy9q-55" target="Z_NX9bVRWXaXTG4kUy9q-53">
          <mxGeometry width="50" height="50" relative="1" as="geometry">
            <mxPoint x="183.7587755102041" y="48.125" as="sourcePoint" />
            <mxPoint x="87.5065306122449" y="52.5" as="targetPoint" />
          </mxGeometry>
        </mxCell>
        <mxCell id="Z_NX9bVRWXaXTG4kUy9q-55" value="&lt;u&gt;id_exp&lt;/u&gt;" style="ellipse;whiteSpace=wrap;html=1;fontSize=7;" vertex="1" parent="Z_NX9bVRWXaXTG4kUy9q-52">
          <mxGeometry x="42" y="70.005" width="52.50122448979591" height="35" as="geometry" />
        </mxCell>
        <mxCell id="Z_NX9bVRWXaXTG4kUy9q-56" value="Nivell" style="ellipse;whiteSpace=wrap;html=1;fontSize=7;" vertex="1" parent="Z_NX9bVRWXaXTG4kUy9q-52">
          <mxGeometry x="99.99571428571429" y="70.01" width="52.50122448979591" height="35" as="geometry" />
        </mxCell>
        <mxCell id="Z_NX9bVRWXaXTG4kUy9q-57" value="" style="endArrow=none;html=1;rounded=0;exitX=0.5;exitY=0;exitDx=0;exitDy=0;entryX=0.75;entryY=1;entryDx=0;entryDy=0;" edge="1" parent="Z_NX9bVRWXaXTG4kUy9q-52" source="Z_NX9bVRWXaXTG4kUy9q-56" target="Z_NX9bVRWXaXTG4kUy9q-53">
          <mxGeometry width="50" height="50" relative="1" as="geometry">
            <mxPoint x="61.255918367346936" y="70" as="sourcePoint" />
            <mxPoint x="91.88163265306122" y="34.5625" as="targetPoint" />
          </mxGeometry>
        </mxCell>
        <mxCell id="Z_NX9bVRWXaXTG4kUy9q-89" value="" style="group" vertex="1" connectable="0" parent="1">
          <mxGeometry x="360.00367346938776" y="229.255" width="236.2612244897959" height="232.005" as="geometry" />
        </mxCell>
        <mxCell id="Z_NX9bVRWXaXTG4kUy9q-81" value="DescripciÃ³" style="ellipse;whiteSpace=wrap;html=1;fontSize=7;" vertex="1" parent="Z_NX9bVRWXaXTG4kUy9q-89">
          <mxGeometry x="70.99999999999997" y="45" width="52.50122448979591" height="35" as="geometry" />
        </mxCell>
        <mxCell id="Z_NX9bVRWXaXTG4kUy9q-82" value="data_partida" style="ellipse;whiteSpace=wrap;html=1;fontSize=7;" vertex="1" parent="Z_NX9bVRWXaXTG4kUy9q-89">
          <mxGeometry x="29.99999999999998" width="52.50122448979591" height="35" as="geometry" />
        </mxCell>
        <mxCell id="Z_NX9bVRWXaXTG4kUy9q-83" value="data_creacio" style="ellipse;whiteSpace=wrap;html=1;fontSize=7;" vertex="1" parent="Z_NX9bVRWXaXTG4kUy9q-89">
          <mxGeometry y="45" width="52.50122448979591" height="35" as="geometry" />
        </mxCell>
        <mxCell id="Z_NX9bVRWXaXTG4kUy9q-79" value="max_jugadors" style="ellipse;whiteSpace=wrap;html=1;fontSize=7;" vertex="1" parent="Z_NX9bVRWXaXTG4kUy9q-89">
          <mxGeometry x="111.86999999999998" y="10" width="52.50122448979591" height="35" as="geometry" />
        </mxCell>
        <mxCell id="Z_NX9bVRWXaXTG4kUy9q-78" value="" style="endArrow=none;html=1;rounded=0;exitX=0.5;exitY=1;exitDx=0;exitDy=0;entryX=0.867;entryY=-0.01;entryDx=0;entryDy=0;entryPerimeter=0;" edge="1" source="Z_NX9bVRWXaXTG4kUy9q-79" parent="Z_NX9bVRWXaXTG4kUy9q-89" target="Z_NX9bVRWXaXTG4kUy9q-67">
          <mxGeometry width="50" height="50" relative="1" as="geometry">
            <mxPoint x="172.76469387755097" y="164.38" as="sourcePoint" />
            <mxPoint x="129.50632653061223" y="85.005" as="targetPoint" />
          </mxGeometry>
        </mxCell>
        <mxCell id="Z_NX9bVRWXaXTG4kUy9q-80" value="Estat" style="ellipse;whiteSpace=wrap;html=1;fontSize=7;" vertex="1" parent="Z_NX9bVRWXaXTG4kUy9q-89">
          <mxGeometry x="139.99999999999997" y="45" width="52.50122448979591" height="35" as="geometry" />
        </mxCell>
        <mxCell id="Z_NX9bVRWXaXTG4kUy9q-85" value="" style="endArrow=none;html=1;rounded=0;exitX=0;exitY=1;exitDx=0;exitDy=0;entryX=1;entryY=0;entryDx=0;entryDy=0;" edge="1" parent="Z_NX9bVRWXaXTG4kUy9q-89" source="Z_NX9bVRWXaXTG4kUy9q-80" target="Z_NX9bVRWXaXTG4kUy9q-67">
          <mxGeometry width="50" height="50" relative="1" as="geometry">
            <mxPoint x="147.99632653061224" y="55.004999999999995" as="sourcePoint" />
            <mxPoint x="130.99632653061224" y="100.005" as="targetPoint" />
          </mxGeometry>
        </mxCell>
        <mxCell id="Z_NX9bVRWXaXTG4kUy9q-86" value="" style="endArrow=none;html=1;rounded=0;exitX=0.5;exitY=1;exitDx=0;exitDy=0;entryX=0.5;entryY=0;entryDx=0;entryDy=0;" edge="1" parent="Z_NX9bVRWXaXTG4kUy9q-89" source="Z_NX9bVRWXaXTG4kUy9q-81" target="Z_NX9bVRWXaXTG4kUy9q-67">
          <mxGeometry width="50" height="50" relative="1" as="geometry">
            <mxPoint x="157.99632653061224" y="100.005" as="sourcePoint" />
            <mxPoint x="139.99632653061224" y="108.005" as="targetPoint" />
          </mxGeometry>
        </mxCell>
        <mxCell id="Z_NX9bVRWXaXTG4kUy9q-87" value="" style="endArrow=none;html=1;rounded=0;exitX=0.5;exitY=1;exitDx=0;exitDy=0;entryX=0.157;entryY=0.01;entryDx=0;entryDy=0;entryPerimeter=0;" edge="1" parent="Z_NX9bVRWXaXTG4kUy9q-89" source="Z_NX9bVRWXaXTG4kUy9q-82" target="Z_NX9bVRWXaXTG4kUy9q-67">
          <mxGeometry width="50" height="50" relative="1" as="geometry">
            <mxPoint x="147.99632653061224" y="55.004999999999995" as="sourcePoint" />
            <mxPoint x="130.99632653061224" y="100.005" as="targetPoint" />
          </mxGeometry>
        </mxCell>
        <mxCell id="Z_NX9bVRWXaXTG4kUy9q-88" value="" style="endArrow=none;html=1;rounded=0;exitX=1;exitY=1;exitDx=0;exitDy=0;entryX=0;entryY=0;entryDx=0;entryDy=0;" edge="1" parent="Z_NX9bVRWXaXTG4kUy9q-89" source="Z_NX9bVRWXaXTG4kUy9q-83" target="Z_NX9bVRWXaXTG4kUy9q-67">
          <mxGeometry width="50" height="50" relative="1" as="geometry">
            <mxPoint x="65.99632653061224" y="45.004999999999995" as="sourcePoint" />
            <mxPoint x="85.99632653061224" y="100.005" as="targetPoint" />
          </mxGeometry>
        </mxCell>
        <mxCell id="Z_NX9bVRWXaXTG4kUy9q-65" value="&lt;span&gt;id_modalitat&lt;/span&gt;" style="ellipse;whiteSpace=wrap;html=1;fontSize=7;" vertex="1" parent="Z_NX9bVRWXaXTG4kUy9q-89">
          <mxGeometry x="105.99367346938774" y="197.005" width="52.50122448979591" height="35" as="geometry" />
        </mxCell>
        <mxCell id="Z_NX9bVRWXaXTG4kUy9q-66" value="" style="endArrow=none;html=1;rounded=0;exitX=0.5;exitY=0;exitDx=0;exitDy=0;entryX=0.673;entryY=1.038;entryDx=0;entryDy=0;entryPerimeter=0;" edge="1" parent="Z_NX9bVRWXaXTG4kUy9q-89" source="Z_NX9bVRWXaXTG4kUy9q-65" target="Z_NX9bVRWXaXTG4kUy9q-67">
          <mxGeometry width="50" height="50" relative="1" as="geometry">
            <mxPoint x="122.50367346938773" y="164.38" as="sourcePoint" />
            <mxPoint x="104.12824489795918" y="126.755" as="targetPoint" />
          </mxGeometry>
        </mxCell>
        <mxCell id="Z_NX9bVRWXaXTG4kUy9q-67" value="Partida" style="rounded=0;whiteSpace=wrap;html=1;fontSize=19;" vertex="1" parent="Z_NX9bVRWXaXTG4kUy9q-89">
          <mxGeometry x="65.6273469387755" y="90.005" width="63.876489795918374" height="31.937500000000004" as="geometry" />
        </mxCell>
        <mxCell id="Z_NX9bVRWXaXTG4kUy9q-68" value="" style="endArrow=none;html=1;rounded=0;exitX=0.5;exitY=0;exitDx=0;exitDy=0;entryX=0.082;entryY=1.005;entryDx=0;entryDy=0;entryPerimeter=0;" edge="1" parent="Z_NX9bVRWXaXTG4kUy9q-89" source="Z_NX9bVRWXaXTG4kUy9q-69" target="Z_NX9bVRWXaXTG4kUy9q-67">
          <mxGeometry width="50" height="50" relative="1" as="geometry">
            <mxPoint x="183.75510204081633" y="138.13" as="sourcePoint" />
            <mxPoint x="87.50285714285712" y="142.505" as="targetPoint" />
          </mxGeometry>
        </mxCell>
        <mxCell id="Z_NX9bVRWXaXTG4kUy9q-69" value="&lt;u&gt;&lt;font&gt;Id_partida&lt;/font&gt;&lt;/u&gt;" style="ellipse;whiteSpace=wrap;html=1;fontSize=7;" vertex="1" parent="Z_NX9bVRWXaXTG4kUy9q-89">
          <mxGeometry x="13.126326530612232" y="140.01" width="52.50122448979591" height="35" as="geometry" />
        </mxCell>
        <mxCell id="Z_NX9bVRWXaXTG4kUy9q-70" value="&lt;span&gt;id_creador&lt;/span&gt;" style="ellipse;whiteSpace=wrap;html=1;fontSize=7;" vertex="1" parent="Z_NX9bVRWXaXTG4kUy9q-89">
          <mxGeometry x="18.81204081632651" y="186.255" width="52.50122448979591" height="35" as="geometry" />
        </mxCell>
        <mxCell id="Z_NX9bVRWXaXTG4kUy9q-71" value="" style="endArrow=none;html=1;rounded=0;exitX=0.79;exitY=0.137;exitDx=0;exitDy=0;entryX=0.25;entryY=1;entryDx=0;entryDy=0;exitPerimeter=0;" edge="1" parent="Z_NX9bVRWXaXTG4kUy9q-89" source="Z_NX9bVRWXaXTG4kUy9q-70" target="Z_NX9bVRWXaXTG4kUy9q-67">
          <mxGeometry width="50" height="50" relative="1" as="geometry">
            <mxPoint x="61.252244897959166" y="160.005" as="sourcePoint" />
            <mxPoint x="91.87795918367345" y="124.5675" as="targetPoint" />
          </mxGeometry>
        </mxCell>
        <mxCell id="Z_NX9bVRWXaXTG4kUy9q-72" value="&lt;span&gt;id_joc&lt;/span&gt;" style="ellipse;whiteSpace=wrap;html=1;fontSize=7;" vertex="1" parent="Z_NX9bVRWXaXTG4kUy9q-89">
          <mxGeometry x="68.9977551020408" y="155.005" width="52.50122448979591" height="35" as="geometry" />
        </mxCell>
        <mxCell id="Z_NX9bVRWXaXTG4kUy9q-73" value="" style="endArrow=none;html=1;rounded=0;exitX=0.5;exitY=0;exitDx=0;exitDy=0;entryX=0.463;entryY=0.99;entryDx=0;entryDy=0;entryPerimeter=0;" edge="1" parent="Z_NX9bVRWXaXTG4kUy9q-89" source="Z_NX9bVRWXaXTG4kUy9q-72" target="Z_NX9bVRWXaXTG4kUy9q-67">
          <mxGeometry width="50" height="50" relative="1" as="geometry">
            <mxPoint x="87.50285714285712" y="208.13" as="sourcePoint" />
            <mxPoint x="96.25306122448978" y="126.3175" as="targetPoint" />
          </mxGeometry>
        </mxCell>
        <mxCell id="Z_NX9bVRWXaXTG4kUy9q-74" value="id_duracio" style="ellipse;whiteSpace=wrap;html=1;fontSize=7;" vertex="1" parent="Z_NX9bVRWXaXTG4kUy9q-89">
          <mxGeometry x="183.76" y="175.01" width="52.50122448979591" height="35" as="geometry" />
        </mxCell>
        <mxCell id="Z_NX9bVRWXaXTG4kUy9q-75" value="" style="endArrow=none;html=1;rounded=0;exitX=0.5;exitY=0;exitDx=0;exitDy=0;entryX=0.896;entryY=0.948;entryDx=0;entryDy=0;entryPerimeter=0;" edge="1" parent="Z_NX9bVRWXaXTG4kUy9q-89" source="Z_NX9bVRWXaXTG4kUy9q-74" target="Z_NX9bVRWXaXTG4kUy9q-67">
          <mxGeometry width="50" height="50" relative="1" as="geometry">
            <mxPoint x="166.25469387755098" y="199.38" as="sourcePoint" />
            <mxPoint x="124.6912244897959" y="124.5675" as="targetPoint" />
          </mxGeometry>
        </mxCell>
        <mxCell id="Z_NX9bVRWXaXTG4kUy9q-76" value="&lt;span&gt;UbicaciÃ³&lt;/span&gt;" style="ellipse;whiteSpace=wrap;html=1;fontSize=7;" vertex="1" parent="Z_NX9bVRWXaXTG4kUy9q-89">
          <mxGeometry x="125.99510204081633" y="148.005" width="52.50122448979591" height="35" as="geometry" />
        </mxCell>
        <mxCell id="Z_NX9bVRWXaXTG4kUy9q-77" value="" style="endArrow=none;html=1;rounded=0;exitX=0;exitY=0;exitDx=0;exitDy=0;entryX=0.75;entryY=1;entryDx=0;entryDy=0;" edge="1" parent="Z_NX9bVRWXaXTG4kUy9q-89" source="Z_NX9bVRWXaXTG4kUy9q-76" target="Z_NX9bVRWXaXTG4kUy9q-67">
          <mxGeometry width="50" height="50" relative="1" as="geometry">
            <mxPoint x="153.12938775510204" y="199.38" as="sourcePoint" />
            <mxPoint x="124.6912244897959" y="124.5675" as="targetPoint" />
          </mxGeometry>
        </mxCell>
        <mxCell id="Z_NX9bVRWXaXTG4kUy9q-90" value="" style="group" vertex="1" connectable="0" parent="1">
          <mxGeometry x="310" y="60" width="236.26489795918366" height="166.25" as="geometry" />
        </mxCell>
        <mxCell id="Z_NX9bVRWXaXTG4kUy9q-91" value="DuraciÃ³" style="rounded=0;whiteSpace=wrap;html=1;fontSize=11;" vertex="1" parent="Z_NX9bVRWXaXTG4kUy9q-90">
          <mxGeometry x="65.63102040816327" width="63.876489795918374" height="31.937500000000004" as="geometry" />
        </mxCell>
        <mxCell id="Z_NX9bVRWXaXTG4kUy9q-92" value="" style="endArrow=none;html=1;rounded=0;exitX=0.5;exitY=0;exitDx=0;exitDy=0;entryX=0.25;entryY=1;entryDx=0;entryDy=0;" edge="1" parent="Z_NX9bVRWXaXTG4kUy9q-90" source="Z_NX9bVRWXaXTG4kUy9q-93" target="Z_NX9bVRWXaXTG4kUy9q-91">
          <mxGeometry width="50" height="50" relative="1" as="geometry">
            <mxPoint x="183.7587755102041" y="48.125" as="sourcePoint" />
            <mxPoint x="87.5065306122449" y="52.5" as="targetPoint" />
          </mxGeometry>
        </mxCell>
        <mxCell id="Z_NX9bVRWXaXTG4kUy9q-93" value="&lt;u&gt;id_duracio&lt;/u&gt;" style="ellipse;whiteSpace=wrap;html=1;fontSize=7;" vertex="1" parent="Z_NX9bVRWXaXTG4kUy9q-90">
          <mxGeometry x="42" y="70.005" width="52.50122448979591" height="35" as="geometry" />
        </mxCell>
        <mxCell id="Z_NX9bVRWXaXTG4kUy9q-94" value="sessions" style="ellipse;whiteSpace=wrap;html=1;fontSize=7;" vertex="1" parent="Z_NX9bVRWXaXTG4kUy9q-90">
          <mxGeometry x="99.99571428571429" y="70.01" width="52.50122448979591" height="35" as="geometry" />
        </mxCell>
        <mxCell id="Z_NX9bVRWXaXTG4kUy9q-95" value="" style="endArrow=none;html=1;rounded=0;exitX=0.5;exitY=0;exitDx=0;exitDy=0;entryX=0.75;entryY=1;entryDx=0;entryDy=0;" edge="1" parent="Z_NX9bVRWXaXTG4kUy9q-90" source="Z_NX9bVRWXaXTG4kUy9q-94" target="Z_NX9bVRWXaXTG4kUy9q-91">
          <mxGeometry width="50" height="50" relative="1" as="geometry">
            <mxPoint x="61.255918367346936" y="70" as="sourcePoint" />
            <mxPoint x="91.88163265306122" y="34.5625" as="targetPoint" />
          </mxGeometry>
        </mxCell>
        <mxCell id="Z_NX9bVRWXaXTG4kUy9q-97" value="" style="group" vertex="1" connectable="0" parent="1">
          <mxGeometry x="500" y="30" width="236.26489795918366" height="166.25" as="geometry" />
        </mxCell>
        <mxCell id="Z_NX9bVRWXaXTG4kUy9q-98" value="Modalitat" style="rounded=0;whiteSpace=wrap;html=1;fontSize=11;" vertex="1" parent="Z_NX9bVRWXaXTG4kUy9q-97">
          <mxGeometry x="65.63102040816327" width="63.876489795918374" height="31.937500000000004" as="geometry" />
        </mxCell>
        <mxCell id="Z_NX9bVRWXaXTG4kUy9q-99" value="" style="endArrow=none;html=1;rounded=0;exitX=0.5;exitY=0;exitDx=0;exitDy=0;entryX=0.25;entryY=1;entryDx=0;entryDy=0;" edge="1" parent="Z_NX9bVRWXaXTG4kUy9q-97" source="Z_NX9bVRWXaXTG4kUy9q-100" target="Z_NX9bVRWXaXTG4kUy9q-98">
          <mxGeometry width="50" height="50" relative="1" as="geometry">
            <mxPoint x="183.7587755102041" y="48.125" as="sourcePoint" />
            <mxPoint x="87.5065306122449" y="52.5" as="targetPoint" />
          </mxGeometry>
        </mxCell>
        <mxCell id="Z_NX9bVRWXaXTG4kUy9q-100" value="&lt;u&gt;id_modalitat&lt;/u&gt;" style="ellipse;whiteSpace=wrap;html=1;fontSize=7;" vertex="1" parent="Z_NX9bVRWXaXTG4kUy9q-97">
          <mxGeometry x="42" y="70.005" width="52.50122448979591" height="35" as="geometry" />
        </mxCell>
        <mxCell id="Z_NX9bVRWXaXTG4kUy9q-101" value="nom" style="ellipse;whiteSpace=wrap;html=1;fontSize=7;" vertex="1" parent="Z_NX9bVRWXaXTG4kUy9q-97">
          <mxGeometry x="99.99571428571429" y="70.01" width="52.50122448979591" height="35" as="geometry" />
        </mxCell>
        <mxCell id="Z_NX9bVRWXaXTG4kUy9q-102" value="" style="endArrow=none;html=1;rounded=0;exitX=0.5;exitY=0;exitDx=0;exitDy=0;entryX=0.75;entryY=1;entryDx=0;entryDy=0;" edge="1" parent="Z_NX9bVRWXaXTG4kUy9q-97" source="Z_NX9bVRWXaXTG4kUy9q-101" target="Z_NX9bVRWXaXTG4kUy9q-98">
          <mxGeometry width="50" height="50" relative="1" as="geometry">
            <mxPoint x="61.255918367346936" y="70" as="sourcePoint" />
            <mxPoint x="91.88163265306122" y="34.5625" as="targetPoint" />
          </mxGeometry>
        </mxCell>
        <mxCell id="Z_NX9bVRWXaXTG4kUy9q-103" value="" style="group" vertex="1" connectable="0" parent="1">
          <mxGeometry x="680" y="80" width="236.26489795918366" height="166.25" as="geometry" />
        </mxCell>
        <mxCell id="Z_NX9bVRWXaXTG4kUy9q-104" value="Chat" style="rounded=0;whiteSpace=wrap;html=1;fontSize=11;" vertex="1" parent="Z_NX9bVRWXaXTG4kUy9q-103">
          <mxGeometry x="65.63102040816327" width="63.876489795918374" height="31.937500000000004" as="geometry" />
        </mxCell>
        <mxCell id="Z_NX9bVRWXaXTG4kUy9q-105" value="" style="endArrow=none;html=1;rounded=0;exitX=0.5;exitY=0;exitDx=0;exitDy=0;entryX=0.25;entryY=1;entryDx=0;entryDy=0;" edge="1" parent="Z_NX9bVRWXaXTG4kUy9q-103" source="Z_NX9bVRWXaXTG4kUy9q-106" target="Z_NX9bVRWXaXTG4kUy9q-104">
          <mxGeometry width="50" height="50" relative="1" as="geometry">
            <mxPoint x="183.7587755102041" y="48.125" as="sourcePoint" />
            <mxPoint x="87.5065306122449" y="52.5" as="targetPoint" />
          </mxGeometry>
        </mxCell>
        <mxCell id="Z_NX9bVRWXaXTG4kUy9q-106" value="&lt;u&gt;id_chat&lt;/u&gt;" style="ellipse;whiteSpace=wrap;html=1;fontSize=7;" vertex="1" parent="Z_NX9bVRWXaXTG4kUy9q-103">
          <mxGeometry x="42" y="59.995" width="52.50122448979591" height="35" as="geometry" />
        </mxCell>
        <mxCell id="Z_NX9bVRWXaXTG4kUy9q-107" value="id_partida" style="ellipse;whiteSpace=wrap;html=1;fontSize=7;" vertex="1" parent="Z_NX9bVRWXaXTG4kUy9q-103">
          <mxGeometry x="71.3157142857143" y="95" width="52.50122448979591" height="35" as="geometry" />
        </mxCell>
        <mxCell id="Z_NX9bVRWXaXTG4kUy9q-108" value="" style="endArrow=none;html=1;rounded=0;exitX=0.5;exitY=0;exitDx=0;exitDy=0;entryX=0.5;entryY=1;entryDx=0;entryDy=0;" edge="1" parent="Z_NX9bVRWXaXTG4kUy9q-103" source="Z_NX9bVRWXaXTG4kUy9q-107" target="Z_NX9bVRWXaXTG4kUy9q-104">
          <mxGeometry width="50" height="50" relative="1" as="geometry">
            <mxPoint x="61.255918367346936" y="70" as="sourcePoint" />
            <mxPoint x="91.88163265306122" y="34.5625" as="targetPoint" />
          </mxGeometry>
        </mxCell>
        <mxCell id="Z_NX9bVRWXaXTG4kUy9q-109" value="nom" style="ellipse;whiteSpace=wrap;html=1;fontSize=7;" vertex="1" parent="Z_NX9bVRWXaXTG4kUy9q-103">
          <mxGeometry x="99.99571428571429" y="60.00000000000001" width="52.50122448979591" height="35" as="geometry" />
        </mxCell>
        <mxCell id="Z_NX9bVRWXaXTG4kUy9q-110" value="" style="endArrow=none;html=1;rounded=0;exitX=0.5;exitY=0;exitDx=0;exitDy=0;entryX=0.75;entryY=1;entryDx=0;entryDy=0;" edge="1" parent="Z_NX9bVRWXaXTG4kUy9q-103" source="Z_NX9bVRWXaXTG4kUy9q-109" target="Z_NX9bVRWXaXTG4kUy9q-104">
          <mxGeometry width="50" height="50" relative="1" as="geometry">
            <mxPoint x="108" y="105" as="sourcePoint" />
            <mxPoint x="108" y="42" as="targetPoint" />
          </mxGeometry>
        </mxCell>
        <mxCell id="Z_NX9bVRWXaXTG4kUy9q-23" value="&lt;u&gt;id_perfil&lt;/u&gt;" style="ellipse;whiteSpace=wrap;html=1;fontSize=7;" vertex="1" parent="1">
          <mxGeometry x="53.129999999999995" y="135.005" width="52.50122448979591" height="35" as="geometry" />
        </mxCell>
        <mxCell id="Z_NX9bVRWXaXTG4kUy9q-22" value="" style="endArrow=none;html=1;rounded=0;exitX=1;exitY=1;exitDx=0;exitDy=0;entryX=0;entryY=0.25;entryDx=0;entryDy=0;" edge="1" parent="1" source="Z_NX9bVRWXaXTG4kUy9q-23" target="Z_NX9bVRWXaXTG4kUy9q-21">
          <mxGeometry width="50" height="50" relative="1" as="geometry">
            <mxPoint x="223.7587755102041" y="238.125" as="sourcePoint" />
            <mxPoint x="127.5065306122449" y="242.5" as="targetPoint" />
          </mxGeometry>
        </mxCell>
        <mxCell id="Z_NX9bVRWXaXTG4kUy9q-24" value="&lt;span&gt;id_usuari&lt;/span&gt;" style="ellipse;whiteSpace=wrap;html=1;fontSize=7;" vertex="1" parent="1">
          <mxGeometry x="69.99571428571429" y="80.00000000000001" width="52.50122448979591" height="35" as="geometry" />
        </mxCell>
        <mxCell id="Z_NX9bVRWXaXTG4kUy9q-25" value="" style="endArrow=none;html=1;rounded=0;exitX=0.5;exitY=1;exitDx=0;exitDy=0;entryX=0.138;entryY=-0.061;entryDx=0;entryDy=0;entryPerimeter=0;" edge="1" parent="1" source="Z_NX9bVRWXaXTG4kUy9q-24" target="Z_NX9bVRWXaXTG4kUy9q-21">
          <mxGeometry width="50" height="50" relative="1" as="geometry">
            <mxPoint x="101.25591836734694" y="250" as="sourcePoint" />
            <mxPoint x="131.88163265306122" y="214.5625" as="targetPoint" />
          </mxGeometry>
        </mxCell>
        <mxCell id="Z_NX9bVRWXaXTG4kUy9q-26" value="&lt;span&gt;Avatar&lt;/span&gt;" style="ellipse;whiteSpace=wrap;html=1;fontSize=7;" vertex="1" parent="1">
          <mxGeometry x="111.32142857142856" y="115" width="52.50122448979591" height="35" as="geometry" />
        </mxCell>
        <mxCell id="Z_NX9bVRWXaXTG4kUy9q-27" value="" style="endArrow=none;html=1;rounded=0;exitX=0.5;exitY=1;exitDx=0;exitDy=0;entryX=0.5;entryY=0;entryDx=0;entryDy=0;" edge="1" parent="1" source="Z_NX9bVRWXaXTG4kUy9q-26" target="Z_NX9bVRWXaXTG4kUy9q-21">
          <mxGeometry width="50" height="50" relative="1" as="geometry">
            <mxPoint x="127.5065306122449" y="298.125" as="sourcePoint" />
            <mxPoint x="136.25673469387755" y="216.3125" as="targetPoint" />
          </mxGeometry>
        </mxCell>
        <mxCell id="Z_NX9bVRWXaXTG4kUy9q-19" value="&lt;span&gt;DescripciÃ³&lt;/span&gt;" style="ellipse;whiteSpace=wrap;html=1;fontSize=7;" vertex="1" parent="1">
          <mxGeometry x="151.8773469387755" y="70" width="52.50122448979591" height="35" as="geometry" />
        </mxCell>
        <mxCell id="Z_NX9bVRWXaXTG4kUy9q-20" value="" style="endArrow=none;html=1;rounded=0;exitX=0.5;exitY=1;exitDx=0;exitDy=0;entryX=0.75;entryY=0;entryDx=0;entryDy=0;" edge="1" parent="1" source="Z_NX9bVRWXaXTG4kUy9q-19" target="Z_NX9bVRWXaXTG4kUy9q-21">
          <mxGeometry width="50" height="50" relative="1" as="geometry">
            <mxPoint x="162.5073469387755" y="244.375" as="sourcePoint" />
            <mxPoint x="144.13191836734694" y="206.75" as="targetPoint" />
          </mxGeometry>
        </mxCell>
        <mxCell id="Z_NX9bVRWXaXTG4kUy9q-30" value="&lt;span&gt;Ciutat&lt;/span&gt;" style="ellipse;whiteSpace=wrap;html=1;fontSize=7;" vertex="1" parent="1">
          <mxGeometry x="179.9987755102041" y="115" width="52.50122448979591" height="35" as="geometry" />
        </mxCell>
        <mxCell id="Z_NX9bVRWXaXTG4kUy9q-31" value="" style="endArrow=none;html=1;rounded=0;exitX=0;exitY=1;exitDx=0;exitDy=0;entryX=0.951;entryY=0.017;entryDx=0;entryDy=0;entryPerimeter=0;" edge="1" parent="1" source="Z_NX9bVRWXaXTG4kUy9q-30" target="Z_NX9bVRWXaXTG4kUy9q-21">
          <mxGeometry width="50" height="50" relative="1" as="geometry">
            <mxPoint x="193.1330612244898" y="279.375" as="sourcePoint" />
            <mxPoint x="164.69489795918366" y="204.5625" as="targetPoint" />
          </mxGeometry>
        </mxCell>
        <mxCell id="Z_NX9bVRWXaXTG4kUy9q-21" value="Perfil" style="rounded=0;whiteSpace=wrap;html=1;fontSize=19;" vertex="1" parent="1">
          <mxGeometry x="105.63102040816327" y="170" width="63.876489795918374" height="31.937500000000004" as="geometry" />
        </mxCell>
        <mxCell id="Z_NX9bVRWXaXTG4kUy9q-111" value="" style="endArrow=none;html=1;rounded=0;entryX=0.5;entryY=1;entryDx=0;entryDy=0;exitX=0.5;exitY=0;exitDx=0;exitDy=0;" edge="1" parent="1" source="Z_NX9bVRWXaXTG4kUy9q-1" target="Z_NX9bVRWXaXTG4kUy9q-21">
          <mxGeometry relative="1" as="geometry">
            <mxPoint x="70" y="280" as="sourcePoint" />
            <mxPoint x="230" y="280" as="targetPoint" />
          </mxGeometry>
        </mxCell>
        <mxCell id="Z_NX9bVRWXaXTG4kUy9q-112" value="(1,1)" style="resizable=0;html=1;whiteSpace=wrap;align=left;verticalAlign=bottom;" connectable="0" vertex="1" parent="Z_NX9bVRWXaXTG4kUy9q-111">
          <mxGeometry x="-1" relative="1" as="geometry" />
        </mxCell>
        <mxCell id="Z_NX9bVRWXaXTG4kUy9q-113" value="&lt;span style=&quot;text-align: left;&quot;&gt;(1,1)&lt;/span&gt;" style="resizable=0;html=1;whiteSpace=wrap;align=right;verticalAlign=bottom;" connectable="0" vertex="1" parent="Z_NX9bVRWXaXTG4kUy9q-111">
          <mxGeometry x="1" relative="1" as="geometry">
            <mxPoint x="28" y="16" as="offset" />
          </mxGeometry>
        </mxCell>
        <mxCell id="Z_NX9bVRWXaXTG4kUy9q-114" value="TÃ©" style="shape=rhombus;perimeter=rhombusPerimeter;whiteSpace=wrap;html=1;align=center;" vertex="1" parent="1">
          <mxGeometry x="87.57" y="239.99" width="100" height="50" as="geometry" />
        </mxCell>
        <mxCell id="Z_NX9bVRWXaXTG4kUy9q-115" value="" style="endArrow=none;html=1;rounded=0;entryX=0;entryY=0.5;entryDx=0;entryDy=0;exitX=1;exitY=0.5;exitDx=0;exitDy=0;" edge="1" parent="1" source="Z_NX9bVRWXaXTG4kUy9q-118" target="Z_NX9bVRWXaXTG4kUy9q-67">
          <mxGeometry relative="1" as="geometry">
            <mxPoint x="148" y="330" as="sourcePoint" />
            <mxPoint x="148" y="212" as="targetPoint" />
          </mxGeometry>
        </mxCell>
        <mxCell id="Z_NX9bVRWXaXTG4kUy9q-117" value="&lt;span style=&quot;text-align: left;&quot;&gt;(1,1)&lt;/span&gt;" style="resizable=0;html=1;whiteSpace=wrap;align=right;verticalAlign=bottom;" connectable="0" vertex="1" parent="Z_NX9bVRWXaXTG4kUy9q-115">
          <mxGeometry x="1" relative="1" as="geometry">
            <mxPoint x="-9" as="offset" />
          </mxGeometry>
        </mxCell>
        <mxCell id="Z_NX9bVRWXaXTG4kUy9q-119" value="" style="endArrow=none;html=1;rounded=0;entryX=0;entryY=0.5;entryDx=0;entryDy=0;exitX=1;exitY=0.5;exitDx=0;exitDy=0;" edge="1" parent="1" source="Z_NX9bVRWXaXTG4kUy9q-1" target="Z_NX9bVRWXaXTG4kUy9q-118">
          <mxGeometry relative="1" as="geometry">
            <mxPoint x="170" y="336" as="sourcePoint" />
            <mxPoint x="426" y="337" as="targetPoint" />
          </mxGeometry>
        </mxCell>
        <mxCell id="Z_NX9bVRWXaXTG4kUy9q-120" value="(0,N)" style="resizable=0;html=1;whiteSpace=wrap;align=left;verticalAlign=bottom;" connectable="0" vertex="1" parent="Z_NX9bVRWXaXTG4kUy9q-119">
          <mxGeometry x="-1" relative="1" as="geometry" />
        </mxCell>
        <mxCell id="Z_NX9bVRWXaXTG4kUy9q-118" value="Crea" style="shape=rhombus;perimeter=rhombusPerimeter;whiteSpace=wrap;html=1;align=center;" vertex="1" parent="1">
          <mxGeometry x="240" y="310" width="100" height="50" as="geometry" />
        </mxCell>
        <mxCell id="Z_NX9bVRWXaXTG4kUy9q-122" value="" style="group;fontSize=11;" vertex="1" connectable="0" parent="1">
          <mxGeometry x="-250" y="320" width="236.26489795918366" height="166.25" as="geometry" />
        </mxCell>
        <mxCell id="Z_NX9bVRWXaXTG4kUy9q-123" value="Estat" style="ellipse;whiteSpace=wrap;html=1;fontSize=7;" vertex="1" parent="Z_NX9bVRWXaXTG4kUy9q-122">
          <mxGeometry x="123.8273469387755" y="120" width="52.50122448979591" height="35" as="geometry" />
        </mxCell>
        <mxCell id="Z_NX9bVRWXaXTG4kUy9q-124" value="" style="endArrow=none;html=1;rounded=0;exitX=0.5;exitY=0;exitDx=0;exitDy=0;entryX=0.673;entryY=1.038;entryDx=0;entryDy=0;entryPerimeter=0;" edge="1" parent="Z_NX9bVRWXaXTG4kUy9q-122" source="Z_NX9bVRWXaXTG4kUy9q-123" target="Z_NX9bVRWXaXTG4kUy9q-125">
          <mxGeometry width="50" height="50" relative="1" as="geometry">
            <mxPoint x="122.5073469387755" y="74.375" as="sourcePoint" />
            <mxPoint x="104.13191836734694" y="36.75" as="targetPoint" />
          </mxGeometry>
        </mxCell>
        <mxCell id="Z_NX9bVRWXaXTG4kUy9q-125" value="Participant" style="rounded=0;whiteSpace=wrap;html=1;fontSize=11;" vertex="1" parent="Z_NX9bVRWXaXTG4kUy9q-122">
          <mxGeometry x="65.63102040816327" width="63.876489795918374" height="31.937500000000004" as="geometry" />
        </mxCell>
        <mxCell id="Z_NX9bVRWXaXTG4kUy9q-126" value="" style="endArrow=none;html=1;rounded=0;exitX=0.5;exitY=0;exitDx=0;exitDy=0;entryX=0.082;entryY=1.005;entryDx=0;entryDy=0;entryPerimeter=0;" edge="1" parent="Z_NX9bVRWXaXTG4kUy9q-122" source="Z_NX9bVRWXaXTG4kUy9q-127" target="Z_NX9bVRWXaXTG4kUy9q-125">
          <mxGeometry width="50" height="50" relative="1" as="geometry">
            <mxPoint x="183.7587755102041" y="48.125" as="sourcePoint" />
            <mxPoint x="87.5065306122449" y="52.5" as="targetPoint" />
          </mxGeometry>
        </mxCell>
        <mxCell id="Z_NX9bVRWXaXTG4kUy9q-127" value="&lt;u&gt;&lt;font&gt;id_partiicpant&lt;/font&gt;&lt;/u&gt;" style="ellipse;whiteSpace=wrap;html=1;fontSize=7;" vertex="1" parent="Z_NX9bVRWXaXTG4kUy9q-122">
          <mxGeometry y="70.005" width="52.50122448979591" height="35" as="geometry" />
        </mxCell>
        <mxCell id="Z_NX9bVRWXaXTG4kUy9q-128" value="&lt;span&gt;id_jugador&lt;/span&gt;" style="ellipse;whiteSpace=wrap;html=1;fontSize=7;" vertex="1" parent="Z_NX9bVRWXaXTG4kUy9q-122">
          <mxGeometry x="30.625714285714285" y="120" width="52.50122448979591" height="35" as="geometry" />
        </mxCell>
        <mxCell id="Z_NX9bVRWXaXTG4kUy9q-129" value="" style="endArrow=none;html=1;rounded=0;exitX=0.5;exitY=0;exitDx=0;exitDy=0;entryX=0.25;entryY=1;entryDx=0;entryDy=0;" edge="1" parent="Z_NX9bVRWXaXTG4kUy9q-122" source="Z_NX9bVRWXaXTG4kUy9q-128" target="Z_NX9bVRWXaXTG4kUy9q-125">
          <mxGeometry width="50" height="50" relative="1" as="geometry">
            <mxPoint x="61.255918367346936" y="70" as="sourcePoint" />
            <mxPoint x="91.88163265306122" y="34.5625" as="targetPoint" />
          </mxGeometry>
        </mxCell>
        <mxCell id="Z_NX9bVRWXaXTG4kUy9q-130" value="&lt;span&gt;id_partida&lt;/span&gt;" style="ellipse;whiteSpace=wrap;html=1;fontSize=7;" vertex="1" parent="Z_NX9bVRWXaXTG4kUy9q-122">
          <mxGeometry x="71.32142857142857" y="85" width="52.50122448979591" height="35" as="geometry" />
        </mxCell>
        <mxCell id="Z_NX9bVRWXaXTG4kUy9q-131" value="" style="endArrow=none;html=1;rounded=0;exitX=0.5;exitY=0;exitDx=0;exitDy=0;entryX=0.5;entryY=1;entryDx=0;entryDy=0;" edge="1" parent="Z_NX9bVRWXaXTG4kUy9q-122" source="Z_NX9bVRWXaXTG4kUy9q-130" target="Z_NX9bVRWXaXTG4kUy9q-125">
          <mxGeometry width="50" height="50" relative="1" as="geometry">
            <mxPoint x="87.5065306122449" y="118.125" as="sourcePoint" />
            <mxPoint x="96.25673469387755" y="36.3125" as="targetPoint" />
          </mxGeometry>
        </mxCell>
        <mxCell id="Z_NX9bVRWXaXTG4kUy9q-132" value="&lt;span&gt;Data_solicitut&lt;/span&gt;" style="ellipse;whiteSpace=wrap;html=1;fontSize=7;" vertex="1" parent="Z_NX9bVRWXaXTG4kUy9q-122">
          <mxGeometry x="140.00367346938776" y="70.005" width="52.50122448979591" height="35" as="geometry" />
        </mxCell>
        <mxCell id="Z_NX9bVRWXaXTG4kUy9q-133" value="" style="endArrow=none;html=1;rounded=0;exitX=0.5;exitY=0;exitDx=0;exitDy=0;entryX=0.896;entryY=0.948;entryDx=0;entryDy=0;entryPerimeter=0;" edge="1" parent="Z_NX9bVRWXaXTG4kUy9q-122" source="Z_NX9bVRWXaXTG4kUy9q-132" target="Z_NX9bVRWXaXTG4kUy9q-125">
          <mxGeometry width="50" height="50" relative="1" as="geometry">
            <mxPoint x="166.25836734693874" y="109.375" as="sourcePoint" />
            <mxPoint x="124.69489795918366" y="34.5625" as="targetPoint" />
          </mxGeometry>
        </mxCell>
        <mxCell id="Z_NX9bVRWXaXTG4kUy9q-136" value="" style="endArrow=none;html=1;rounded=0;entryX=1;entryY=0.5;entryDx=0;entryDy=0;exitX=0;exitY=0.5;exitDx=0;exitDy=0;" edge="1" parent="1" source="Z_NX9bVRWXaXTG4kUy9q-139" target="Z_NX9bVRWXaXTG4kUy9q-125">
          <mxGeometry relative="1" as="geometry">
            <mxPoint x="-40" y="414" as="sourcePoint" />
            <mxPoint x="-40" y="296" as="targetPoint" />
          </mxGeometry>
        </mxCell>
        <mxCell id="Z_NX9bVRWXaXTG4kUy9q-138" value="&lt;span style=&quot;text-align: left;&quot;&gt;(N,1)&lt;/span&gt;" style="resizable=0;html=1;whiteSpace=wrap;align=right;verticalAlign=bottom;" connectable="0" vertex="1" parent="Z_NX9bVRWXaXTG4kUy9q-136">
          <mxGeometry x="1" relative="1" as="geometry">
            <mxPoint x="30" as="offset" />
          </mxGeometry>
        </mxCell>
        <mxCell id="Z_NX9bVRWXaXTG4kUy9q-140" value="" style="endArrow=none;html=1;rounded=0;entryX=1;entryY=0.5;entryDx=0;entryDy=0;exitX=0;exitY=0.5;exitDx=0;exitDy=0;" edge="1" parent="1" source="Z_NX9bVRWXaXTG4kUy9q-1" target="Z_NX9bVRWXaXTG4kUy9q-139">
          <mxGeometry relative="1" as="geometry">
            <mxPoint x="106" y="336" as="sourcePoint" />
            <mxPoint x="-120" y="336" as="targetPoint" />
          </mxGeometry>
        </mxCell>
        <mxCell id="Z_NX9bVRWXaXTG4kUy9q-141" value="(0,N)" style="resizable=0;html=1;whiteSpace=wrap;align=left;verticalAlign=bottom;" connectable="0" vertex="1" parent="Z_NX9bVRWXaXTG4kUy9q-140">
          <mxGeometry x="-1" relative="1" as="geometry">
            <mxPoint x="-33" as="offset" />
          </mxGeometry>
        </mxCell>
        <mxCell id="Z_NX9bVRWXaXTG4kUy9q-139" value="Participa" style="shape=rhombus;perimeter=rhombusPerimeter;whiteSpace=wrap;html=1;align=center;" vertex="1" parent="1">
          <mxGeometry x="-50" y="310" width="100" height="50" as="geometry" />
        </mxCell>
      </root>
    </mxGraphModel>
  </diagram>
</mxfile>
